<?xml version="1.0" encoding="utf-8"?>
<svg viewBox="0 12.755 776.361 489.35" xmlns="http://www.w3.org/2000/svg">
  <path style="stroke: rgb(0, 0, 0); stroke-width: 0px; fill: rgba(209, 196, 233, 0.54);" d="M 341.519 4.455 C 207.23 65.912 523.643 490.167 833.015 492.678 L 833.866 6.257"/>
  <circle style="fill: rgb(255, 152, 0);" cx="769.557" cy="137.755" r="66.658"/>
  <circle style="fill: rgb(255, 152, 0);" cx="6.755" cy="459.25" r="39.315"/>
  <title>instat_analysis</title>
  <g transform="matrix(0.359661, 0, 0, 0.380042, 457.698242, 251.936584)" style="">
    <path d="M 260.312 -52.505 C 259.427 -50.417 258.561 -48.276 257.74 -46.143 L 255.594 -46.968 C 256.425 -49.125 257.3 -51.289 258.195 -53.401 Z" fill="#e6e6e6" style=""/>
    <path d="M 637.51 99.871 C 636.399 102.756 635.214 105.64 633.987 108.444 L 631.881 107.524 C 633.718 103.325 635.45 98.969 637.007 94.632 L 639.171 95.409 C 638.636 96.898 638.083 98.385 637.51 99.871 Z M 643.464 82.054 L 641.251 81.428 C 642.513 76.99 643.634 72.461 644.585 67.966 L 646.835 68.441 C 645.872 72.986 644.739 77.566 643.464 82.054 Z M 627.938 121.099 C 625.783 125.236 623.461 129.345 621.036 133.311 L 619.075 132.112 C 621.472 128.192 623.767 124.129 625.898 120.037 Z M 649.265 54.629 L 646.987 54.309 C 647.629 49.751 648.119 45.111 648.444 40.52 L 650.737 40.68 C 650.409 45.325 649.913 50.018 649.265 54.629 Z M 613.31 145.021 C 610.614 148.816 607.749 152.568 604.795 156.171 L 603.018 154.715 C 605.939 151.151 608.771 147.442 611.437 143.689 Z M 651.243 26.664 L 648.944 26.663 C 648.95 22.061 648.797 17.403 648.489 12.819 L 650.783 12.664 C 651.094 17.3 651.25 22.009 651.243 26.664 Z M 595.519 166.724 C 592.316 170.122 588.958 173.447 585.537 176.608 L 583.977 174.919 C 587.358 171.794 590.679 168.507 593.845 165.147 Z M 649.361 -1.274 L 647.083 -0.961 C 646.457 -5.521 645.668 -10.116 644.733 -14.617 L 646.985 -15.086 C 647.93 -10.534 648.729 -5.887 649.361 -1.274 Z M 574.904 185.779 C 571.268 188.704 567.489 191.536 563.669 194.198 L 562.356 192.312 C 566.131 189.68 569.869 186.88 573.465 183.988 Z M 643.669 -28.704 L 641.455 -28.083 C 640.214 -32.516 638.805 -36.96 637.265 -41.295 L 639.431 -42.067 C 640.989 -37.682 642.415 -33.186 643.669 -28.704 Z M 551.887 201.828 C 547.895 204.224 543.767 206.514 539.616 208.636 L 538.571 206.588 C 542.675 204.49 546.757 202.226 550.705 199.856 Z M 634.292 -55.112 L 632.183 -54.195 C 630.35 -58.418 628.348 -62.632 626.233 -66.72 L 628.276 -67.778 C 630.415 -63.643 632.438 -59.382 634.292 -55.112 Z M 526.911 214.59 C 522.627 216.423 518.227 218.13 513.833 219.666 L 513.077 217.495 C 517.421 215.978 521.771 214.289 526.008 212.476 Z M 621.406 -80.007 L 619.441 -78.813 C 617.054 -82.744 614.496 -86.647 611.841 -90.414 L 613.72 -91.739 C 616.406 -87.93 618.992 -83.982 621.406 -80.007 Z M 500.444 223.838 C 495.953 225.072 491.363 226.164 486.804 227.086 L 486.349 224.833 C 490.857 223.921 495.395 222.841 499.838 221.621 Z M 605.244 -102.92 L 603.46 -101.469 C 600.553 -105.044 597.485 -108.561 594.34 -111.925 L 596.02 -113.495 C 599.201 -110.093 602.304 -106.536 605.244 -102.92 Z M 472.979 229.394 C 468.365 230.003 463.672 230.458 459.031 230.747 L 458.89 228.453 C 463.478 228.166 468.119 227.716 472.68 227.115 Z M 586.088 -123.413 L 584.52 -121.729 C 581.147 -124.87 577.622 -127.934 574.041 -130.835 L 575.49 -132.622 C 579.112 -129.688 582.678 -126.589 586.088 -123.413 Z M 445.03 231.139 C 440.373 231.109 435.658 230.915 431.017 230.564 L 431.193 228.271 C 435.781 228.619 440.441 228.81 445.047 228.84 Z M 564.295 -141.065 L 562.973 -139.182 C 559.204 -141.825 555.295 -144.37 551.357 -146.745 L 552.546 -148.714 C 556.529 -146.311 560.481 -143.738 564.295 -141.065 Z M 417.079 229.022 C 412.473 228.35 407.831 227.51 403.281 226.523 L 403.77 224.276 C 408.269 225.252 412.858 226.083 417.412 226.746 Z M 540.301 -155.537 L 539.249 -153.492 C 535.161 -155.589 530.941 -157.575 526.708 -159.395 L 527.617 -161.507 C 531.898 -159.668 536.165 -157.659 540.301 -155.537 Z M 389.689 223.084 C 385.225 221.79 380.742 220.324 376.363 218.727 L 377.152 216.567 C 381.483 218.147 385.916 219.596 390.33 220.875 Z M 513.791 -164.436 C 509.444 -165.968 504.995 -167.368 500.567 -168.598 L 501.183 -170.813 C 505.662 -169.57 510.161 -168.154 514.556 -166.606 Z M 487.089 -171.847 C 482.572 -172.772 477.974 -173.551 473.419 -174.162 L 473.726 -176.44 C 478.333 -175.823 482.984 -175.035 487.552 -174.1 Z M 459.621 -175.527 C 455.032 -175.822 450.374 -175.961 445.778 -175.939 L 445.768 -178.238 C 450.418 -178.26 455.129 -178.12 459.77 -177.821 Z M 431.934 -175.394 C 427.341 -175.054 422.705 -174.551 418.156 -173.899 L 417.831 -176.175 C 422.432 -176.835 427.121 -177.343 431.766 -177.687 Z M 404.508 -171.461 C 400 -170.496 395.474 -169.363 391.057 -168.097 L 390.424 -170.306 C 394.892 -171.588 399.469 -172.733 404.028 -173.711 Z M 377.862 -163.821 C 373.533 -162.253 369.202 -160.516 364.988 -158.657 L 364.061 -160.761 C 368.323 -162.641 372.703 -164.398 377.081 -165.983 Z M 352.493 -152.627 C 348.41 -150.482 344.353 -148.171 340.434 -145.759 L 339.23 -147.716 C 343.193 -150.156 347.296 -152.493 351.424 -154.662 Z M 328.871 -138.086 C 325.116 -135.403 321.411 -132.56 317.858 -129.636 L 316.397 -131.41 C 319.991 -134.368 323.738 -137.243 327.536 -139.956 Z M 307.449 -120.448 C 304.097 -117.279 300.816 -113.954 297.695 -110.566 L 296.005 -112.123 C 299.161 -115.55 302.48 -118.913 305.87 -122.119 Z M 288.645 -100.033 C 285.766 -96.438 282.976 -92.697 280.352 -88.912 L 278.463 -90.221 C 281.117 -94.049 283.939 -97.833 286.85 -101.469 Z M 272.846 -77.246 C 270.491 -73.294 268.242 -69.205 266.159 -65.094 L 264.108 -66.133 C 266.214 -70.29 268.49 -74.425 270.87 -78.422 Z" fill="#e6e6e6" style=""/>
    <path d="M 363.985 211.242 L 363.048 213.343 C 360.928 212.399 358.813 211.414 356.762 210.416 L 357.769 208.349 C 359.797 209.335 361.888 210.309 363.985 211.242 Z" fill="#e6e6e6" style=""/>
    <rect x="48" y="266.694" width="550" height="350.833" fill="#3f3d56" style="" transform="matrix(1, 0, -0.00074, 1, -300.142365, -229.971848)"/>
    <path d="M 223.628 387.233 C 223.364 386.802 217.151 376.415 215.01 354.846 C 213.047 335.057 214.344 301.702 231.677 255.174 C 264.513 167.029 224.242 95.91 223.831 95.201 L 225.821 94.047 C 225.925 94.227 236.317 112.36 242.442 141.233 C 250.536 179.513 247.549 219.316 233.832 255.975 C 201.051 343.969 225.342 385.624 225.591 386.035 Z" fill="#e6e6e6" style=""/>
    <circle cx="511.413" cy="305.052" r="14.945" fill="#673ab7" style="" transform="matrix(1, 0, -0.00074, 1, -300.142365, -229.971848)"/>
    <circle cx="558.548" cy="360.235" r="14.945" fill="#e6e6e6" style="" transform="matrix(1, 0, -0.00074, 1, -300.142365, -229.971848)"/>
    <circle cx="526.358" cy="397.024" r="14.945" fill="#673ab7" style="" transform="matrix(1, 0, -0.00074, 1, -300.142365, -229.971848)"/>
    <circle cx="565.446" cy="428.064" r="14.945" fill="#673ab7" style="" transform="matrix(1, 0, -0.00074, 1, -300.142365, -229.971848)"/>
    <circle cx="514.861" cy="476.349" r="14.945" fill="#e6e6e6" style="" transform="matrix(1, 0, -0.00074, 1, -300.142365, -229.971848)"/>
    <path d="M 232.656 387.783 C 232.656 387.783 217.738 350.995 262.595 323.403 Z" fill="#e6e6e6" style=""/>
    <path d="M 214.276 387.116 C 214.276 387.116 207.503 347.994 154.859 348.33 Z" fill="#e6e6e6" style=""/>
    <path d="M 65.035 115.013 C 76.814 120.188 87.555 127.458 96.735 136.47 L 105.97 127.242 C 95.166 116.614 82.433 108.147 68.452 102.295 Z" fill="#673ab7" style=""/>
    <path d="M -78.418 179.872 C -74.013 166.175 -66.865 153.516 -57.412 142.666 L -66.648 133.423 C -77.7 145.915 -86.001 160.591 -91.01 176.498 Z" fill="#673ab7" style=""/>
    <path d="M 117.232 140.012 L 107.908 149.329 C 115.094 159.067 120.554 169.967 124.049 181.555 L 136.632 178.184 C 132.536 164.387 125.962 151.452 117.232 140.012 Z" fill="#e6e6e6" style=""/>
    <path d="M -54.512 121.509 L -45.26 130.767 C -34.367 121.663 -21.756 114.84 -8.178 110.703 L -11.54 98.123 C -27.329 102.853 -41.964 110.817 -54.512 121.509 Z" fill="#673ab7" style=""/>
    <path d="M -83.47 212.139 C -83.466 206.884 -83.072 201.635 -82.293 196.437 L -94.924 193.052 C -97.557 209.291 -96.819 225.896 -92.756 241.832 L -80.179 238.463 C -82.376 229.862 -83.481 221.018 -83.47 212.139 Z" fill="#673ab7" style=""/>
    <path d="M 48.576 314.879 C 40.037 317.049 31.261 318.144 22.452 318.139 C 19.189 318.139 15.962 317.983 12.773 317.693 L 9.354 330.419 C 23.609 331.99 38.032 330.985 51.936 327.454 Z" fill="#e6e6e6" style=""/>
    <path d="M -74.627 254.572 L -87.348 257.98 C -81.23 272.623 -72.249 285.895 -60.93 297.016 L -51.695 287.788 C -61.39 278.282 -69.174 267.007 -74.627 254.572 Z" fill="#673ab7" style=""/>
    <path d="M 140.282 194.803 L 127.623 198.194 C 129.129 209.645 128.759 221.267 126.526 232.601 L 139.123 235.977 C 141.88 222.42 142.273 208.49 140.282 194.803 Z" fill="#e6e6e6" style=""/>
    <path d="M 8.455 107.087 C 21.976 105.27 35.717 106.072 48.93 109.449 L 52.309 96.874 C 36.884 92.931 20.827 92.1 5.073 94.429 Z" fill="#673ab7" style=""/>
    <path d="M -4.045 314.785 C -16.445 311.575 -28.156 306.135 -38.604 298.731 L -47.953 308.072 C -35.797 317.026 -22.041 323.572 -7.424 327.358 Z" fill="#e6e6e6" style=""/>
    <path d="M 102.764 299.959 L 93.535 290.723 C 84.994 298.452 75.255 304.743 64.698 309.35 L 68.095 322.063 C 80.844 316.759 92.575 309.28 102.764 299.959 Z" fill="#e6e6e6" style=""/>
    <path d="M 121.902 248.965 C 117.941 259.585 112.303 269.502 105.202 278.339 L 114.475 287.618 C 123.13 277.097 129.914 265.166 134.529 252.349 Z" fill="#e6e6e6" style=""/>
    <rect x="60" y="286.611" width="58" height="23" fill="#e6e6e6" style="" transform="matrix(1, 0, -0.00074, 1, -300.142365, -229.971848)"/>
    <rect x="60" y="321.611" width="58" height="23" fill="#673ab7" style="" transform="matrix(1, 0, -0.00074, 1, -300.142365, -229.971848)"/>
    <path d="M 110.785 -174.236 C 110.785 -174.236 117.301 -152.773 113.564 -146.241 C 109.826 -139.709 120.081 -125.712 136.882 -132.244 C 153.684 -138.776 154.623 -146.241 154.623 -146.241 C 154.623 -146.241 148.098 -156.506 146.248 -177.969 Z" fill="#ffb9b9" style=""/>
    <path d="M 25.245 36.192 C 25.245 36.192 -8.361 52.989 6.553 75.385 C 15.222 88.403 31.763 113.717 44.097 132.634 C 54.419 148.466 62.332 165.744 67.575 183.905 L 69.921 192.03 L 79.245 203.228 L 98.858 180.832 C 98.858 180.832 69.969 127.642 69.977 117.377 C 69.984 107.113 46.679 74.452 46.679 74.452 L 70.019 59.521 C 70.019 59.521 43.913 29.66 25.245 36.192 Z" fill="#ffb9b9" style=""/>
    <path d="M 134.382 94.048 C 134.382 94.048 135.296 120.177 136.221 130.441 C 136.985 138.91 129.481 162.622 132.057 189.001 C 133.629 206.067 133.426 223.252 131.453 240.279 L 127.717 274.149 L 155.709 276.948 L 165.098 200.429 C 165.098 200.429 170.737 146.305 167.95 128.575 L 168.911 91.249 C 168.911 91.249 148.387 83.783 134.382 94.048 Z" fill="#ffb9b9" style=""/>
    <path d="M 84.538 -14.665 C 84.538 -14.665 19.186 27.327 18.243 40.391 C 18.243 40.391 55.572 36.659 56.481 69.319 C 56.481 69.319 78.883 60.921 84.484 59.055 C 90.084 57.188 119.96 37.592 119.96 37.592 C 119.96 37.592 132.084 46.923 132.073 61.854 C 132.062 76.785 131.109 102.913 132.041 104.779 C 132.973 106.646 154.456 79.584 172.169 102.913 L 184.347 38.525 C 184.347 38.525 188.109 -0.668 180.646 -3.467 L 128.403 -23.064 Z" fill="#2f2e41" style=""/>
    <circle cx="424.499" cy="39.405" r="27.995" fill="#ffb9b9" style="" transform="matrix(1, 0, -0.00074, 1, -300.142365, -229.971848)"/>
    <path d="M 117.293 -141.575 C 117.293 -141.575 148.863 -133.236 153.15 -149.07 C 153.15 -149.07 191.946 -141.575 198.459 -116.38 C 204.973 -91.185 182.532 -30.529 182.531 -28.663 C 182.529 -26.796 201.184 -15.598 192.782 -10 C 184.379 -4.401 176.919 -10.933 180.646 -3.467 C 184.373 3.998 190.904 5.864 185.303 7.731 C 179.703 9.597 146.13 -19.331 119.996 -11.866 C 93.862 -4.401 80.802 -10 80.802 -10 L 69.161 -111.259 C 68.238 -119.141 71.375 -126.957 77.493 -132.017 C 83.344 -136.831 91.107 -142.031 98.631 -143.442 C 113.564 -146.241 114.185 -147.774 114.185 -147.774 Z" fill="#d0cde1" style=""/>
    <path d="M 87.311 21.728 C 87.311 21.728 95.674 69.319 106.877 62.787 C 118.08 56.255 104.108 21.728 104.108 21.728 Z" fill="#ffb9b9" style=""/>
    <path d="M 126.289 27.887 C 126.289 27.887 111.703 73.97 124.653 73.354 C 137.602 72.738 141.178 35.651 141.178 35.651 Z" fill="#ffb9b9" style=""/>
    <path d="M 74.588 190.164 C 74.588 190.164 68.062 182.699 64.322 192.963 C 60.581 203.228 50.307 216.292 50.307 216.292 C 50.307 216.292 27.892 241.488 43.755 242.421 C 59.619 243.354 82.032 220.025 82.032 220.025 L 108.178 195.763 C 108.178 195.763 99.534 174.672 95.465 174.486 C 91.397 174.3 92.312 199.496 74.588 190.164 Z" fill="#2f2e41" style=""/>
    <path d="M 135.187 267.616 C 135.187 267.616 128.609 269.536 129.104 261.578 C 129.104 261.578 105.321 274.149 111.846 283.48 C 118.371 292.812 125.83 302.143 125.83 302.143 C 125.83 302.143 160.342 321.74 163.145 317.074 C 165.948 312.408 165.955 303.077 164.091 299.344 C 162.228 295.611 152.901 289.079 155.705 283.48 C 158.508 277.881 154.787 262.951 150.121 262.951 C 145.455 262.951 135.187 267.616 135.187 267.616 Z" fill="#2f2e41" style=""/>
    <path d="M 99.915 -214.288 C 99.915 -214.288 108.935 -233.8 126.192 -229.297 C 143.45 -224.794 153.201 -218.04 153.946 -211.286 C 154.692 -204.532 153.559 -194.4 153.559 -194.4 C 153.559 -194.4 151.693 -208.284 139.683 -205.282 C 127.673 -202.28 108.913 -204.532 108.913 -204.532 L 105.891 -177.515 C 105.891 -177.515 102.518 -182.393 98.763 -179.391 C 95.009 -176.389 87.903 -208.284 99.915 -214.288 Z" fill="#2f2e41" style=""/>
    <path d="M 182.596 -117.313 C 182.596 -117.313 160.155 -56.658 162.016 -49.192 C 163.877 -41.727 162.01 -40.794 159.209 -38.928 C 156.408 -37.061 148.929 -17.465 148.929 -17.465 C 148.929 -17.465 144.254 -6.267 140.52 -3.467 C 136.785 -0.668 136.779 6.797 136.779 6.797 C 136.779 6.797 127.441 16.129 129.306 17.995 C 131.171 19.862 131.169 22.661 127.434 25.461 C 123.699 28.26 119.964 31.993 121.83 32.926 C 123.695 33.859 136.752 44.124 140.485 43.191 C 144.219 42.258 138.622 38.525 143.289 36.659 C 147.957 34.792 150.758 31.993 148.893 31.06 C 147.027 30.126 141.428 30.126 147.028 28.26 C 152.629 26.394 172.234 14.263 178.777 -0.668 C 185.32 -15.598 216.685 -105.932 197.779 -118.621 C 197.779 -118.621 190.07 -128.511 182.596 -117.313 Z" fill="#d0cde1" style=""/>
    <path d="M 79.023 -127.578 L 78.644 -127.42 C 71.485 -124.436 66.257 -118.114 64.671 -110.523 C 62.626 -100.77 60.611 -86.664 62.186 -73.455 C 64.968 -50.125 66.827 -39.861 70.554 -32.395 C 74.281 -24.93 75.216 -27.73 74.279 -22.131 C 73.342 -16.532 68.679 -21.197 73.34 -13.732 C 78 -6.267 80.801 -8.133 78.932 -4.4 C 77.063 -0.668 74.263 -0.668 77.992 3.998 C 81.722 8.664 81.72 10.53 82.652 12.396 C 83.584 14.263 86.373 28.26 86.373 28.26 C 86.373 28.26 101.307 23.594 109.704 25.461 C 109.704 25.461 102.248 12.396 104.117 9.597 C 105.985 6.797 108.785 5.864 105.988 3.065 C 103.19 0.265 98.524 1.198 103.192 -1.601 C 107.86 -4.401 99.483 -33.329 99.483 -33.329 Z" fill="#d0cde1" style=""/>
    <rect y="616.611" width="966" height="2" fill="#3f3d56" style="" transform="matrix(1, 0, -0.00074, 1, -300.142365, -229.971848)"/>
    <polygon points="332.375 86.676 330.921 85.304 440.731 -31.137 530.046 -31.137 530.044 -29.137 441.594 -29.137 332.375 86.676" fill="#3f3d56" style=""/>
    <rect x="769.591" y="214.127" width="105.409" height="3.573" fill="#673ab7" style="" transform="matrix(1, 0, -0.00074, 1, -300.142365, -229.971848)"/>
    <rect x="769.591" y="229.313" width="105.409" height="3.573" fill="#673ab7" style="" transform="matrix(1, 0, -0.00074, 1, -300.142365, -229.971848)"/>
    <rect x="769.591" y="244.499" width="105.409" height="3.573" fill="#673ab7" style="" transform="matrix(1, 0, -0.00074, 1, -300.142365, -229.971848)"/>
    <rect x="758.591" y="505.127" width="105.409" height="3.573" fill="#673ab7" style="" transform="matrix(1, 0, -0.00074, 1, -300.142365, -229.971848)"/>
    <rect x="758.591" y="520.313" width="105.409" height="3.573" fill="#673ab7" style="" transform="matrix(1, 0, -0.00074, 1, -300.142365, -229.971848)"/>
    <rect x="758.591" y="535.499" width="105.409" height="3.573" fill="#673ab7" style="" transform="matrix(1, 0, -0.00074, 1, -300.142365, -229.971848)"/>
    <polygon points="518.497 257.227 412.972 257.227 412.674 256.794 330.762 137.794 332.409 136.66 414.024 255.227 518.499 255.227 518.497 257.227" fill="#3f3d56" style=""/>
  </g>
  <g style="" transform="matrix(0.369383, 0, 0, 0.33011, 661.597595, 393.957581)">
    <polygon points="214.157 172.314 -43.582 172.314 -43.582 170.208 214.538 170.208 214.157 172.314" fill="#3f3d56"/>
    <polygon points="48.976 138.785 38.699 138.785 40.534 81.893 67.696 83.361 48.976 138.785" fill="#ffb8b8"/>
    <path d="M 50.378 171.481 C 47.276 172.897 44.678 161.427 42.061 163.998 C 34.742 171.191 27.18 172.757 17.41 169.617 L 17.184 169.579 C 14.697 168.779 13.383 166.063 14.3 163.616 L 14.3 163.616 C 14.828 162.208 16.015 161.149 17.475 160.784 L 25.258 158.838 L 37.48 137.345 L 49.957 136.502 L 49.957 136.502 C 55.592 143.686 57.624 153.057 55.47 161.931 C 54.338 166.552 52.59 170.472 50.378 171.481 Z" fill="#2f2e41"/>
    <polygon points="146.615 131.265 137.058 135.045 117.839 81.466 143.637 72.841 146.615 131.265" fill="#ffb8b8"/>
    <path d="M 159.944 161.154 C 157.58 163.611 150.945 153.9 149.458 157.254 C 145.297 166.634 138.841 170.872 128.601 171.545 L 128.377 171.593 C 125.77 171.764 123.549 169.722 123.502 167.109 L 123.502 167.109 C 123.475 165.605 124.189 164.184 125.412 163.308 L 131.935 158.636 L 135.394 134.154 L 146.687 128.781 L 146.687 128.781 C 154.569 133.389 159.905 141.356 161.166 150.4 C 161.813 155.113 161.629 159.402 159.944 161.154 Z" fill="#2f2e41"/>
    <path d="M 115.414 -143.448 L 99.636 -139.391 C 94.537 -138.079 89.53 -141.81 89.328 -147.071 L 89.328 -147.071 C 89.144 -151.857 93.058 -155.796 97.845 -155.642 L 111.744 -155.193 L 138.525 -164.945 L 113.212 -183.823 L 116.148 -210.25 L 165.479 -170.646 C 167.258 -169.218 168.361 -167.114 168.523 -164.839 L 168.523 -164.839 C 168.802 -160.939 166.286 -157.385 162.515 -156.352 C 150.956 -146.919 134.116 -144.03 115.414 -143.448 Z" fill="#ffb8b8"/>
    <circle cx="79.444" cy="-268.243" r="25.693" fill="#ffb8b8"/>
    <path d="M 111.01 -233.007 L 76.507 -219.059 C 77.521 -229.966 74.662 -240.881 68.432 -249.891 L 97.062 -256.497 C 96.69 -247.754 101.418 -239.938 111.01 -233.007 Z" fill="#ffb8b8"/>
    <path d="M 117.249 -173.178 C 89.437 -170.952 74.224 -174.646 50.814 -188.227 L 59.623 -208.782 L 59.623 -208.782 C 58.722 -215.091 61.426 -221.375 66.627 -225.06 L 75.773 -231.538 L 103.669 -239.613 L 104.92 -239.551 C 112.597 -239.167 118.792 -233.136 119.382 -225.472 C 125.442 -207.361 125.481 -189.855 117.249 -173.178 Z" fill="#673ab7"/>
    <path d="M 111.744 -130.234 L 52.283 -136.841 L 47.878 -155.927 C 38.115 -170.665 42.376 -184.165 53.751 -197.036 C 74.484 -183.73 93.729 -177.98 121.287 -182.354 C 113.958 -164.531 107.19 -147.015 111.744 -130.234 Z" fill="#2f2e41"/>
    <path d="M 157.991 92.194 L 110.643 89.625 L 95.227 -32.968 L 82.747 88.891 L 26.59 86.322 C 43.72 6.21 55.621 -69.841 52.283 -139.777 L 111.01 -134.639 C 130.913 -113.653 140.795 -80.154 146.613 -40.309 C 152.43 -0.463 157.119 45.728 157.991 92.194 Z" fill="#2f2e41"/>
    <circle cx="107.728" cy="-300.464" r="8.831" fill="#2f2e41"/>
    <path d="M 98.628 -302.626 C 98.929 -307.276 102.795 -310.891 107.455 -310.88 C 107.273 -310.903 107.092 -310.931 106.906 -310.943 C 100.122 -311.379 95.409 -304.308 98.424 -298.214 C 99.823 -295.386 102.624 -293.519 105.773 -293.317 C 105.959 -293.305 106.142 -293.31 106.325 -293.309 C 101.702 -293.895 98.331 -297.975 98.628 -302.626 Z" fill="#2f2e41"/>
    <path d="M 98.578 -298.855 C 90.702 -305.388 68.111 -297.084 66.653 -292.692 C 56.003 -291.24 47.939 -285.026 47.939 -273.977 L 47.939 -273.977 C 54.271 -271.383 61.473 -271.703 69.258 -273.977 C 81.667 -263.864 82.518 -251.15 74.971 -236.548 L 84.256 -236.362 L 95.765 -253.183 L 96.315 -236.121 L 117.599 -236.548 L 117.599 -260.999 C 117.668 -269.128 115.796 -277.157 112.141 -284.419 C 108.824 -290.863 103.677 -294.625 98.578 -298.855 Z" fill="#2f2e41"/>
    <ellipse cx="78.759" cy="-261.567" rx="4.223" ry="5.912" fill="#ffb8b8"/>
    <path d="M 46.456 -34.819 C 47.275 -34.819 47.939 -34.155 47.939 -33.336 L 47.939 25.983 C 47.939 26.802 47.275 27.466 46.456 27.466 L 3.895 27.466 C 3.076 27.466 2.412 26.802 2.412 25.983 L 2.412 -33.336 C 2.412 -34.155 3.076 -34.819 3.895 -34.819 L 46.456 -34.819" fill="#673ab7"/>
    <path d="M 52.283 -56.826 L 53.72 -31.912 C 54.115 -25.069 48.127 -19.588 41.345 -20.585 L 41.345 -20.585 C 35.015 -21.516 34.872 -27.706 36.423 -33.913 L 42.335 -57.56 C 56.837 -109.558 60.752 -160.595 60.019 -210.371 C 59.893 -217.492 65.733 -223.278 72.852 -223.085 L 72.852 -223.085 C 79.779 -222.885 85.219 -217.084 84.974 -210.158 C 82.921 -151.708 74.396 -98.629 52.283 -56.826 Z" fill="#ffb8b8"/>
  </g>
  <circle cx="6.81265" cy="6.81404" r="6.81334" fill="#e6e6e6" transform="matrix(1, 0, 0, 1, -567.852202, -461.808711)"/>
  <circle cx="41.30169" cy="6.81404" r="6.81334" fill="#e6e6e6" transform="matrix(1, 0, 0, 1, -567.852202, -461.808711)"/>
  <circle cx="75.79073" cy="6.81404" r="6.81334" fill="#e6e6e6" transform="matrix(1, 0, 0, 1, -567.852202, -461.808711)"/>
  <circle cx="110.27977" cy="6.81404" r="6.81334" fill="#e6e6e6" transform="matrix(1, 0, 0, 1, -567.852202, -461.808711)"/>
  <circle cx="144.76881" cy="6.81404" r="6.81334" fill="#e6e6e6" transform="matrix(1, 0, 0, 1, -567.852202, -461.808711)"/>
  <circle cx="179.25785" cy="6.81404" r="6.81334" fill="#e6e6e6" transform="matrix(1, 0, 0, 1, -567.852202, -461.808711)"/>
  <circle cx="213.74689" cy="6.81404" r="6.81334" fill="#e6e6e6" transform="matrix(1, 0, 0, 1, -567.852202, -461.808711)"/>
  <circle cx="248.23593" cy="6.81404" r="6.81334" fill="#e6e6e6" transform="matrix(1, 0, 0, 1, -567.852202, -461.808711)"/>
  <circle cx="282.72497" cy="6.81404" r="6.81334" fill="#e6e6e6" transform="matrix(1, 0, 0, 1, -567.852202, -461.808711)"/>
  <circle cx="317.21401" cy="6.81404" r="6.81334" fill="#e6e6e6" transform="matrix(1, 0, 0, 1, -567.852202, -461.808711)"/>
  <circle cx="6.81265" cy="41.73599" r="6.81334" fill="#e6e6e6" transform="matrix(0.552071, 0, 0, 0.509982, 23.563669, 49.055122)" style=""/>
  <circle cx="41.30169" cy="41.73599" r="6.81334" fill="#e6e6e6" transform="matrix(0.552071, 0, 0, 0.509982, 23.563669, 49.055122)" style=""/>
  <circle cx="75.79073" cy="41.73599" r="6.81334" fill="#e6e6e6" transform="matrix(0.552071, 0, 0, 0.509982, 23.563669, 49.055122)" style=""/>
  <circle cx="110.27977" cy="41.73599" r="6.81334" fill="#673ab7" transform="matrix(0.552071, 0, 0, 0.509982, 23.563669, 49.055122)" style=""/>
  <circle cx="144.76881" cy="41.73599" r="6.81334" fill="#e6e6e6" transform="matrix(1, 0, 0, 1, -567.852202, -461.808711)"/>
  <circle cx="179.25785" cy="41.73599" r="6.81334" fill="#e6e6e6" transform="matrix(1, 0, 0, 1, -567.852202, -461.808711)"/>
  <circle cx="213.74689" cy="41.73599" r="6.81334" fill="#e6e6e6" transform="matrix(1, 0, 0, 1, -567.852202, -461.808711)"/>
  <circle cx="248.23593" cy="41.73599" r="6.81334" fill="#e6e6e6" transform="matrix(1, 0, 0, 1, -567.852202, -461.808711)"/>
  <circle cx="282.72497" cy="41.73599" r="6.81334" fill="#e6e6e6" transform="matrix(1, 0, 0, 1, -567.852202, -461.808711)"/>
  <circle cx="317.21401" cy="41.73599" r="6.81334" fill="#e6e6e6" transform="matrix(1, 0, 0, 1, -567.852202, -461.808711)"/>
  <circle cx="6.81265" cy="76.65794" r="6.81334" fill="#e6e6e6" transform="matrix(0.552071, 0, 0, 0.509982, 23.563669, 49.055122)" style=""/>
  <circle cx="41.30169" cy="76.65794" r="6.81334" fill="#e6e6e6" transform="matrix(0.552071, 0, 0, 0.509982, 23.563669, 49.055122)" style=""/>
  <circle cx="75.79073" cy="76.65794" r="6.81334" fill="#e6e6e6" transform="matrix(0.552071, 0, 0, 0.509982, 23.563669, 49.055122)" style=""/>
  <circle cx="110.27977" cy="76.65794" r="6.81334" fill="#e6e6e6" transform="matrix(0.552071, 0, 0, 0.509982, 23.563669, 49.055122)" style=""/>
  <circle cx="144.76881" cy="76.65794" r="6.81334" fill="#e6e6e6" transform="matrix(1, 0, 0, 1, -567.852202, -461.808711)"/>
  <circle cx="179.25785" cy="76.65794" r="6.81334" fill="#e6e6e6" transform="matrix(1, 0, 0, 1, -567.852202, -461.808711)"/>
  <circle cx="213.74689" cy="76.65794" r="6.81334" fill="#e6e6e6" transform="matrix(1, 0, 0, 1, -567.852202, -461.808711)"/>
  <circle cx="248.23593" cy="76.65794" r="6.81334" fill="#e6e6e6" transform="matrix(1, 0, 0, 1, -567.852202, -461.808711)"/>
  <circle cx="282.72497" cy="76.65794" r="6.81334" fill="#e6e6e6" transform="matrix(1, 0, 0, 1, -567.852202, -461.808711)"/>
  <circle cx="317.21401" cy="76.65794" r="6.81334" fill="#e6e6e6" transform="matrix(1, 0, 0, 1, -567.852202, -461.808711)"/>
  <circle cx="6.81265" cy="111.57988" r="6.81334" fill="#e6e6e6" transform="matrix(0.552071, 0, 0, 0.509982, 23.563669, 49.055122)" style=""/>
  <circle cx="41.30169" cy="111.57988" r="6.81334" fill="#e6e6e6" transform="matrix(0.552071, 0, 0, 0.509982, 23.563669, 49.055122)" style=""/>
  <circle cx="75.79073" cy="111.57988" r="6.81334" fill="#e6e6e6" transform="matrix(0.552071, 0, 0, 0.509982, 23.563669, 49.055122)" style=""/>
  <circle cx="110.27977" cy="111.57988" r="6.81334" fill="#e6e6e6" transform="matrix(0.552071, 0, 0, 0.509982, 23.563669, 49.055122)" style=""/>
  <circle cx="144.76881" cy="111.57988" r="6.81334" fill="#e6e6e6" transform="matrix(1, 0, 0, 1, -567.852202, -461.808711)"/>
  <circle cx="179.25785" cy="111.57988" r="6.81334" fill="#e6e6e6" transform="matrix(1, 0, 0, 1, -567.852202, -461.808711)"/>
  <circle cx="213.74689" cy="111.57988" r="6.81334" fill="#e6e6e6" transform="matrix(1, 0, 0, 1, -567.852202, -461.808711)"/>
  <circle cx="248.23593" cy="111.57988" r="6.81334" fill="#e6e6e6" transform="matrix(1, 0, 0, 1, -567.852202, -461.808711)"/>
  <circle cx="282.72497" cy="111.57988" r="6.81334" fill="#e6e6e6" transform="matrix(1, 0, 0, 1, -567.852202, -461.808711)"/>
  <circle cx="317.21401" cy="111.57988" r="6.81334" fill="#e6e6e6" transform="matrix(1, 0, 0, 1, -567.852202, -461.808711)"/>
  <circle cx="6.81265" cy="146.50183" r="6.81334" fill="#e6e6e6" transform="matrix(0.552071, 0, 0, 0.509982, 23.563669, 49.055122)" style=""/>
  <circle cx="41.30169" cy="146.50183" r="6.81334" fill="#673ab7" transform="matrix(0.552071, 0, 0, 0.509982, 23.563669, 49.055122)" style=""/>
  <circle cx="75.79073" cy="146.50183" r="6.81334" fill="#e6e6e6" transform="matrix(0.552071, 0, 0, 0.509982, 23.563669, 49.055122)" style=""/>
  <circle cx="110.27977" cy="146.50183" r="6.81334" fill="#e6e6e6" transform="matrix(0.552071, 0, 0, 0.509982, 23.563669, 49.055122)" style=""/>
  <circle cx="144.76881" cy="146.50183" r="6.81334" fill="#e6e6e6" transform="matrix(1, 0, 0, 1, -567.852202, -461.808711)"/>
  <circle cx="179.25785" cy="146.50183" r="6.81334" fill="#e6e6e6" transform="matrix(1, 0, 0, 1, -567.852202, -461.808711)"/>
  <circle cx="213.74689" cy="146.50183" r="6.81334" fill="#e6e6e6" transform="matrix(1, 0, 0, 1, -567.852202, -461.808711)"/>
  <circle cx="248.23593" cy="146.50183" r="6.81334" fill="#e6e6e6" transform="matrix(1, 0, 0, 1, -567.852202, -461.808711)"/>
  <circle cx="282.72497" cy="146.50183" r="6.81334" fill="#e6e6e6" transform="matrix(1, 0, 0, 1, -567.852202, -461.808711)"/>
  <circle cx="317.21401" cy="146.50183" r="6.81334" fill="#e6e6e6" transform="matrix(1, 0, 0, 1, -567.852202, -461.808711)"/>
  <circle cx="6.81265" cy="181.42378" r="6.81334" fill="#e6e6e6" transform="matrix(0.552071, 0, 0, 0.509982, 23.563669, 49.055122)" style=""/>
  <circle cx="41.30169" cy="181.42378" r="6.81334" fill="#e6e6e6" transform="matrix(0.552071, 0, 0, 0.509982, 23.563669, 49.055122)" style=""/>
  <circle cx="75.79073" cy="181.42378" r="6.81334" fill="#e6e6e6" transform="matrix(0.552071, 0, 0, 0.509982, 23.563669, 49.055122)" style=""/>
  <circle cx="110.27977" cy="181.42378" r="6.81334" fill="#e6e6e6" transform="matrix(0.552071, 0, 0, 0.509982, 23.563669, 49.055122)" style=""/>
  <circle cx="144.76881" cy="181.42378" r="6.81334" fill="#e6e6e6" transform="matrix(1, 0, 0, 1, -567.852202, -461.808711)"/>
  <circle cx="179.25785" cy="181.42378" r="6.81334" fill="#e6e6e6" transform="matrix(1, 0, 0, 1, -567.852202, -461.808711)"/>
  <circle cx="213.74689" cy="181.42378" r="6.81334" fill="#e6e6e6" transform="matrix(1, 0, 0, 1, -567.852202, -461.808711)"/>
  <circle cx="248.23593" cy="181.42378" r="6.81334" fill="#e6e6e6" transform="matrix(1, 0, 0, 1, -567.852202, -461.808711)"/>
  <circle cx="282.72497" cy="181.42378" r="6.81334" fill="#e6e6e6" transform="matrix(1, 0, 0, 1, -567.852202, -461.808711)"/>
  <circle cx="317.21401" cy="181.42378" r="6.81334" fill="#e6e6e6" transform="matrix(1, 0, 0, 1, -567.852202, -461.808711)"/>
  <circle cx="6.81265" cy="216.34573" r="6.81334" fill="#e6e6e6" transform="matrix(0.552071, 0, 0, 0.509982, 23.563669, 49.055122)" style=""/>
  <circle cx="41.30169" cy="216.34573" r="6.81334" fill="#e6e6e6" transform="matrix(0.552071, 0, 0, 0.509982, 23.563669, 49.055122)" style=""/>
  <circle cx="75.79073" cy="216.34573" r="6.81334" fill="#673ab7" transform="matrix(0.552071, 0, 0, 0.509982, 23.563669, 49.055122)" style=""/>
  <circle cx="110.27977" cy="216.34573" r="6.81334" fill="#e6e6e6" transform="matrix(0.552071, 0, 0, 0.509982, 23.563669, 49.055122)" style=""/>
  <circle cx="144.76881" cy="216.34573" r="6.81334" fill="#e6e6e6" transform="matrix(1, 0, 0, 1, -567.852202, -461.808711)"/>
  <circle cx="179.25785" cy="216.34573" r="6.81334" fill="#e6e6e6" transform="matrix(1, 0, 0, 1, -567.852202, -461.808711)"/>
  <circle cx="213.74689" cy="216.34573" r="6.81334" fill="#e6e6e6" transform="matrix(1, 0, 0, 1, -567.852202, -461.808711)"/>
  <circle cx="248.23593" cy="216.34573" r="6.81334" fill="#e6e6e6" transform="matrix(1, 0, 0, 1, -567.852202, -461.808711)"/>
  <circle cx="282.72497" cy="216.34573" r="6.81334" fill="#e6e6e6" transform="matrix(1, 0, 0, 1, -567.852202, -461.808711)"/>
  <circle cx="317.21401" cy="216.34573" r="6.81334" fill="#e6e6e6" transform="matrix(1, 0, 0, 1, -567.852202, -461.808711)"/>
  <circle cx="6.81265" cy="251.26768" r="6.81334" fill="#e6e6e6" transform="matrix(1, 0, 0, 1, -567.852202, -461.808711)"/>
  <circle cx="41.30169" cy="251.26768" r="6.81334" fill="#e6e6e6" transform="matrix(1, 0, 0, 1, -567.852202, -461.808711)"/>
  <circle cx="75.79073" cy="251.26768" r="6.81334" fill="#e6e6e6" transform="matrix(1, 0, 0, 1, -567.852202, -461.808711)"/>
  <circle cx="110.27977" cy="251.26768" r="6.81334" fill="#e6e6e6" transform="matrix(1, 0, 0, 1, -567.852202, -461.808711)"/>
  <circle cx="144.76881" cy="251.26768" r="6.81334" fill="#e6e6e6" transform="matrix(1, 0, 0, 1, -567.852202, -461.808711)"/>
  <circle cx="179.25785" cy="251.26768" r="6.81334" fill="#e6e6e6" transform="matrix(1, 0, 0, 1, -567.852202, -461.808711)"/>
  <circle cx="213.74689" cy="251.26768" r="6.81334" fill="#e6e6e6" transform="matrix(1, 0, 0, 1, -567.852202, -461.808711)"/>
  <circle cx="248.23593" cy="251.26768" r="6.81334" fill="#e6e6e6" transform="matrix(1, 0, 0, 1, -567.852202, -461.808711)"/>
  <circle cx="282.72497" cy="251.26768" r="6.81334" fill="#e6e6e6" transform="matrix(1, 0, 0, 1, -567.852202, -461.808711)"/>
  <circle cx="317.21401" cy="251.26768" r="6.81334" fill="#e6e6e6" transform="matrix(1, 0, 0, 1, -567.852202, -461.808711)"/>
  <circle cx="6.81265" cy="286.18963" r="6.81334" fill="#e6e6e6" transform="matrix(1, 0, 0, 1, -567.852202, -461.808711)"/>
  <circle cx="41.30169" cy="286.18963" r="6.81334" fill="#e6e6e6" transform="matrix(1, 0, 0, 1, -567.852202, -461.808711)"/>
  <circle cx="75.79073" cy="286.18963" r="6.81334" fill="#e6e6e6" transform="matrix(1, 0, 0, 1, -567.852202, -461.808711)"/>
  <circle cx="110.27977" cy="286.18963" r="6.81334" fill="#e6e6e6" transform="matrix(1, 0, 0, 1, -567.852202, -461.808711)"/>
  <circle cx="144.76881" cy="286.18963" r="6.81334" fill="#e6e6e6" transform="matrix(1, 0, 0, 1, -567.852202, -461.808711)"/>
  <circle cx="179.25785" cy="286.18963" r="6.81334" fill="#e6e6e6" transform="matrix(1, 0, 0, 1, -567.852202, -461.808711)"/>
  <circle cx="213.74689" cy="286.18963" r="6.81334" fill="#e6e6e6" transform="matrix(1, 0, 0, 1, -567.852202, -461.808711)"/>
  <circle cx="248.23593" cy="286.18963" r="6.81334" fill="#e6e6e6" transform="matrix(1, 0, 0, 1, -567.852202, -461.808711)"/>
  <circle cx="282.72497" cy="286.18963" r="6.81334" fill="#e6e6e6" transform="matrix(1, 0, 0, 1, -567.852202, -461.808711)"/>
  <circle cx="317.21401" cy="286.18963" r="6.81334" fill="#e6e6e6" transform="matrix(1, 0, 0, 1, -567.852202, -461.808711)"/>
  <circle cx="6.81265" cy="321.11157" r="6.81334" fill="#e6e6e6" transform="matrix(1, 0, 0, 1, -567.852202, -461.808711)"/>
  <circle cx="41.30169" cy="321.11157" r="6.81334" fill="#e6e6e6" transform="matrix(1, 0, 0, 1, -567.852202, -461.808711)"/>
  <circle cx="75.79073" cy="321.11157" r="6.81334" fill="#e6e6e6" transform="matrix(1, 0, 0, 1, -567.852202, -461.808711)"/>
  <circle cx="110.27977" cy="321.11157" r="6.81334" fill="#e6e6e6" transform="matrix(1, 0, 0, 1, -567.852202, -461.808711)"/>
  <circle cx="144.76881" cy="321.11157" r="6.81334" fill="#e6e6e6" transform="matrix(1, 0, 0, 1, -567.852202, -461.808711)"/>
  <circle cx="179.25785" cy="321.11157" r="6.81334" fill="#e6e6e6" transform="matrix(1, 0, 0, 1, -567.852202, -461.808711)"/>
  <circle cx="213.74689" cy="321.11157" r="6.81334" fill="#e6e6e6" transform="matrix(1, 0, 0, 1, -567.852202, -461.808711)"/>
  <circle cx="248.23593" cy="321.11157" r="6.81334" fill="#e6e6e6" transform="matrix(1, 0, 0, 1, -567.852202, -461.808711)"/>
  <circle cx="282.72497" cy="321.11157" r="6.81334" fill="#e6e6e6" transform="matrix(1, 0, 0, 1, -567.852202, -461.808711)"/>
  <circle cx="317.21401" cy="321.11157" r="6.81334" fill="#e6e6e6" transform="matrix(1, 0, 0, 1, -567.852202, -461.808711)"/>
  <path d="M 642.81 -409.96 C 647.568 -409.96 651.424 -406.103 651.424 -401.346 L 651.424 -56.787 C 651.424 -52.029 647.568 -48.173 642.81 -48.173 L 395.589 -48.173 C 390.832 -48.173 386.975 -52.029 386.975 -56.787 L 386.975 -401.346 C 386.975 -406.103 390.832 -409.96 395.589 -409.96 L 642.81 -409.96" fill="#e6e6e6"/>
  <path d="M -48.327 -46.938 L 196.889 -46.938 L 196.889 -389.492 L -48.327 -389.492 Z" fill="#fff"/>
  <path d="M553.64892,257.64283a1.72279,1.72279,0,0,1,1.72279,1.7228v3.4456a1.72279,1.72279,0,0,1-1.72279,1.72279H417.548a1.72278,1.72278,0,0,1-1.72279-1.72279v-3.4456a1.72278,1.72278,0,0,1,1.72279-1.7228h136.101" fill="#e6e6e6" transform="matrix(1, 0, 0, 1, -776.657164, -594.747447)"/>
  <path d="M553.64892,274.0094a1.7228,1.7228,0,0,1,1.72279,1.7228v3.4456a1.72279,1.72279,0,0,1-1.72279,1.72279H417.548a1.72278,1.72278,0,0,1-1.72279-1.72279v-3.4456a1.72279,1.72279,0,0,1,1.72279-1.7228h136.101" fill="#e6e6e6" transform="matrix(1, 0, 0, 1, -776.657164, -594.747447)"/>
  <path d="M553.64892,290.376a1.7228,1.7228,0,0,1,1.72279,1.72279v3.4456a1.7228,1.7228,0,0,1-1.72279,1.72279H417.548a1.72279,1.72279,0,0,1-1.72279-1.72279v-3.4456A1.72279,1.72279,0,0,1,417.548,290.376h136.101" fill="#673ab7" transform="matrix(1, 0, 0, 1, -776.657164, -594.747447)"/>
  <path d="M553.64892,307.10073a1.72279,1.72279,0,0,1,1.72279,1.72279v3.4456a1.72279,1.72279,0,0,1-1.72279,1.72279H417.548a1.72278,1.72278,0,0,1-1.72279-1.72279v-3.4456a1.72278,1.72278,0,0,1,1.72279-1.72279h136.101" fill="#e6e6e6" transform="matrix(1, 0, 0, 1, -776.657164, -594.747447)"/>
  <path d="M553.64892,323.4673a1.72279,1.72279,0,0,1,1.72279,1.72279v3.4456a1.72279,1.72279,0,0,1-1.72279,1.7228H417.548a1.72278,1.72278,0,0,1-1.72279-1.7228v-3.4456a1.72278,1.72278,0,0,1,1.72279-1.72279h136.101" fill="#e6e6e6" transform="matrix(1, 0, 0, 1, -776.657164, -594.747447)"/>
  <path d="M553.64892,339.83387a1.7228,1.7228,0,0,1,1.72279,1.72279v3.4456a1.72281,1.72281,0,0,1-1.72279,1.7228H417.548a1.7228,1.7228,0,0,1-1.72279-1.7228v-3.4456a1.72279,1.72279,0,0,1,1.72279-1.72279h136.101" fill="#e6e6e6" transform="matrix(1, 0, 0, 1, -776.657164, -594.747447)"/>
  <path d="M418.41724,394.89a2.002,2.002,0,0,0-2,2v92.91552a2.0023,2.0023,0,0,0,2,2H552.5481a2.00229,2.00229,0,0,0,2-2V396.89a2.002,2.002,0,0,0-2-2Z" fill="#673ab7" transform="matrix(1, 0, 0, 1, -776.657164, -594.747447)"/>
  <polygon points="277.241 161.182 275.833 160.808 306.56 45.221 484.785 45.221 484.785 46.678 307.679 46.678 277.241 161.182" fill="#3f3d56" transform="matrix(1, 0, 0, 1, -567.852202, -461.808711)"/>
  <path d="M708.15259,194.17916a15.29091,15.29091,0,1,1,15.2909-15.29091A15.30831,15.30831,0,0,1,708.15259,194.17916Zm0-29.12554a13.83463,13.83463,0,1,0,13.83462,13.83463A13.85037,13.85037,0,0,0,708.15259,165.05362Z" transform="matrix(1, 0, 0, 1, -776.657164, -594.747447)" fill="#3f3d56"/>
  <circle cx="499.34763" cy="45.94952" r="5.82511" fill="#673ab7" transform="matrix(1, 0, 0, 1, -567.852202, -461.808711)"/>
  <polygon points="272.477 356.941 273.884 357.317 242.937 472.845 64.712 472.504 64.715 471.047 241.82 471.387 272.477 356.941" fill="#3f3d56" transform="matrix(1, 0, 0, 1, -567.852202, -461.808711)"/>
  <path d="M258.98467,589.39543A15.29091,15.29091,0,1,1,243.66449,604.657,15.30832,15.30832,0,0,1,258.98467,589.39543Zm-.05582,29.12548a13.83463,13.83463,0,1,0-13.80809-13.86111A13.85036,13.85036,0,0,0,258.92885,618.52091Z" transform="matrix(1, 0, 0, 1, -776.657164, -594.747447)" fill="#3f3d56"/>
  <circle cx="50.15041" cy="471.74758" r="5.82511" fill="#673ab7" transform="matrix(1, 0, 0, 1, -567.852202, -461.808711)"/>
</svg>